<svg xmlns="http://www.w3.org/2000/svg" viewBox="0 0 106.32 29.79"><defs><style>.cls-1{fill:none;}.cls-2{fill:#e92000;}.cls-3{fill:#4285f4;}.cls-4{fill:#ffba08;}.cls-5{fill:#2bb673;}.cls-6{fill:#231f20;opacity:0.2;}.cls-7{fill:#666;}</style></defs><title>Asset 1</title><g id="Layer_2" data-name="Layer 2"><g id="Layer_2-2" data-name="Layer 2"><circle class="cls-1" cx="13.83" cy="15.96" r="8.05" transform="translate(-2.85 28.91) rotate(-86.91)"/><path class="cls-2" d="M14.25,9.13H14.2L14,12.41a3.5,3.5,0,0,1,3.3,3.67l3.18.17c0-.05,0-.1,0-.15A6.63,6.63,0,0,0,14.25,9.13Z"/><path class="cls-1" d="M5.8,15.47v.06a8.23,8.23,0,1,0,0-.06Z"/><path class="cls-1" d="M14.58,2.15l-.31,5.77a8.05,8.05,0,1,1-8.47,7.61v-.06L0,15.16v.06A13.83,13.83,0,1,0,14.58,2.15Z"/><path class="cls-3" d="M14.27,7.92l.31-5.77A13.83,13.83,0,0,0,0,15.16l5.77.31A8.05,8.05,0,0,1,14.27,7.92Z"/><path class="cls-1" d="M13.4,24a8.05,8.05,0,1,0-7.6-8.53v.06A8.05,8.05,0,0,0,13.4,24Z"/><path class="cls-1" d="M14.58,2.15A13.83,13.83,0,0,0,0,15.16l5.77.31A8.05,8.05,0,1,1,13.4,24l-.31,5.77A13.83,13.83,0,0,0,14.58,2.15Z"/><path class="cls-4" d="M5.79,15.52v-.06L0,15.16v.06A13.83,13.83,0,0,0,13.09,29.77L13.4,24A8.05,8.05,0,0,1,5.79,15.52Z"/><path class="cls-1" d="M21.87,16.39s0,0,0-.06a7.88,7.88,0,1,0,0,.06Z"/><path class="cls-1" d="M13.4,24a8.05,8.05,0,1,1,8.47-7.66l5.77.31A13.83,13.83,0,1,0,13.09,29.77Z"/><path class="cls-5" d="M21.87,16.39A8.05,8.05,0,0,1,13.4,24l-.31,5.77A13.83,13.83,0,0,0,27.64,16.7s0,0,0-.06l-5.77-.31S21.87,16.37,21.87,16.39Z"/><path class="cls-1" d="M14.27,7.92a8.05,8.05,0,1,0,7.61,8.47s0,0,0-.06l-8-.43Z"/><path class="cls-2" d="M14.66.56l-.09,1.58-.31,5.77a8.05,8.05,0,0,1,7.61,8.42l5.77.31,1.52.08A15.36,15.36,0,0,0,14.66.56Z"/><path class="cls-1" d="M21.81,17a8,8,0,0,1-8.41,7l-.31,5.77A13.83,13.83,0,0,0,27.59,17.32Z"/><path class="cls-6" d="M27.64,16.7s0,0,0-.06l-5.77-.31s0,0,0,.06c0,.21,0,.41-.06.62l5.78.31C27.61,17.12,27.63,16.91,27.64,16.7Z"/><path class="cls-6" d="M14.27,7.92l.31-5.77-.68,0-.31,5.79C13.81,7.91,14,7.91,14.27,7.92Z"/><path class="cls-7" d="M104.22,4.19a2.1,2.1,0,1,1,2.1-2.1A2.1,2.1,0,0,1,104.22,4.19Zm0-3.86A1.76,1.76,0,1,0,106,2.1,1.76,1.76,0,0,0,104.22.34Z"/><path class="cls-7" d="M104.73,3.14l-.41-.65h-.65v.65h-.29V1.06h.82a.92.92,0,0,1,.61.18.64.64,0,0,1,.22.52.74.74,0,0,1-.12.43.66.66,0,0,1-.34.25l.48.71Zm-.53-.91a.63.63,0,0,0,.41-.12.42.42,0,0,0,.14-.35.41.41,0,0,0-.14-.34.64.64,0,0,0-.41-.11h-.53v.92Z"/><path class="cls-7" d="M48.38,25.22H45.92L35.82,9.7h-.1q.2,2.73.2,5V25.22h-2V6.73h2.43L46.44,22.18h.1q0-.34-.11-2.19t-.06-2.65V6.73h2Z"/><path class="cls-7" d="M67.58,15.8q0,4.58-2.49,7t-7.15,2.42H52.81V6.73h5.67a9.06,9.06,0,0,1,6.7,2.39A9,9,0,0,1,67.58,15.8Zm-2.28.08a7.45,7.45,0,0,0-1.82-5.45,7.27,7.27,0,0,0-5.39-1.83H55V23.36h2.62q3.84,0,5.78-1.89A7.49,7.49,0,0,0,65.3,15.87Z"/><path class="cls-7" d="M87.1,15.95a10.18,10.18,0,0,1-2.25,7,7.89,7.89,0,0,1-6.24,2.54A8,8,0,0,1,72.31,23q-2.22-2.5-2.22-7.05t2.23-7a8,8,0,0,1,6.32-2.49A7.88,7.88,0,0,1,84.86,9,10.17,10.17,0,0,1,87.1,15.95Zm-14.74,0a8.78,8.78,0,0,0,1.6,5.7,6.54,6.54,0,0,0,9.29,0,8.9,8.9,0,0,0,1.57-5.7,8.83,8.83,0,0,0-1.56-5.66,5.6,5.6,0,0,0-4.62-1.93A5.71,5.71,0,0,0,74,10.3,8.69,8.69,0,0,0,72.37,15.95Z"/><path class="cls-7" d="M96.27,25.22H94.12V8.64H88.26V6.73h13.86V8.64H96.27Z"/></g></g></svg>